<?xml version="1.0" standalone="no"?>
<!DOCTYPE svg PUBLIC "-//W3C//DTD SVG 20010904//EN"
 "http://www.w3.org/TR/2001/REC-SVG-20010904/DTD/svg10.dtd">
<svg version="1.0" xmlns="http://www.w3.org/2000/svg"
 width="70.000000pt" height="70.000000pt" viewBox="0 0 70.000000 70.000000"
 preserveAspectRatio="xMidYMid meet">
<metadata>
Created by potrace 1.14, written by Peter Selinger 2001-2017
</metadata>
<g transform="translate(0.000000,70.000000) scale(0.100000,-0.100000)"
fill="#000000" stroke="none">
<path d="M0 350 l0 -350 350 0 350 0 0 350 0 350 -350 0 -350 0 0 -350z m440
190 c0 -72 10 -131 21 -124 5 3 9 32 9 65 0 32 4 59 9 59 6 0 23 -17 38 -37
26 -34 28 -43 31 -151 4 -107 2 -115 -19 -138 -12 -13 -26 -24 -31 -24 -4 0
-9 37 -9 83 l-2 82 -13 -85 c-7 -47 -13 -87 -15 -90 -1 -3 -7 31 -14 75 l-12
80 -2 -116 -1 -115 -35 -34 -35 -34 0 319 0 319 40 -39 c37 -36 40 -43 40 -95z
m-111 -192 l0 -313 -94 100 -94 100 -1 115 c0 110 1 117 25 143 14 15 27 27
28 27 1 0 3 -57 5 -127 3 -124 4 -127 32 -160 l30 -34 2 113 c2 62 1 150 0
196 -3 77 -1 86 23 118 14 19 30 34 34 34 5 0 9 -141 10 -312z m-239 1 c0 -45
-5 -47 -37 -17 l-23 22 21 22 c28 30 39 22 39 -27z m560 6 c0 -7 -8 -20 -19
-29 -18 -16 -19 -15 -25 19 -9 46 0 61 25 39 10 -9 19 -22 19 -29z"/>
</g>
</svg>
